<mxfile host="app.diagrams.net" agent="Mozilla/5.0 (Windows NT 10.0; Win64; x64) AppleWebKit/537.36 (KHTML, like Gecko) Chrome/127.0.0.0 Safari/537.36 Edg/127.0.0.0" version="24.7.7">
  <diagram id="C5RBs43oDa-KdzZeNtuy" name="Page-1">
    <mxGraphModel dx="1002" dy="533" grid="1" gridSize="10" guides="1" tooltips="1" connect="1" arrows="1" fold="1" page="1" pageScale="1" pageWidth="827" pageHeight="1169" math="0" shadow="0">
      <root>
        <mxCell id="WIyWlLk6GJQsqaUBKTNV-0" />
        <mxCell id="WIyWlLk6GJQsqaUBKTNV-1" parent="WIyWlLk6GJQsqaUBKTNV-0" />
        <mxCell id="QCrbIoIutA18WwkuLbIm-2" value="" style="edgeStyle=orthogonalEdgeStyle;rounded=0;orthogonalLoop=1;jettySize=auto;html=1;" edge="1" parent="WIyWlLk6GJQsqaUBKTNV-1" source="QCrbIoIutA18WwkuLbIm-0" target="QCrbIoIutA18WwkuLbIm-1">
          <mxGeometry relative="1" as="geometry" />
        </mxCell>
        <mxCell id="QCrbIoIutA18WwkuLbIm-0" value="Inicio" style="ellipse;whiteSpace=wrap;html=1;aspect=fixed;" vertex="1" parent="WIyWlLk6GJQsqaUBKTNV-1">
          <mxGeometry x="300" y="40" width="100" height="100" as="geometry" />
        </mxCell>
        <mxCell id="QCrbIoIutA18WwkuLbIm-4" value="" style="edgeStyle=orthogonalEdgeStyle;rounded=0;orthogonalLoop=1;jettySize=auto;html=1;" edge="1" parent="WIyWlLk6GJQsqaUBKTNV-1" source="QCrbIoIutA18WwkuLbIm-1" target="QCrbIoIutA18WwkuLbIm-3">
          <mxGeometry relative="1" as="geometry" />
        </mxCell>
        <mxCell id="QCrbIoIutA18WwkuLbIm-1" value="Mostrar mensaje: &quot;Por favor,&amp;nbsp;&lt;div&gt;ingrese una palabra&quot;&lt;/div&gt;" style="shape=parallelogram;perimeter=parallelogramPerimeter;whiteSpace=wrap;html=1;fixedSize=1;fillColor=#ffe6cc;strokeColor=#d79b00;" vertex="1" parent="WIyWlLk6GJQsqaUBKTNV-1">
          <mxGeometry x="250" y="190" width="200" height="110" as="geometry" />
        </mxCell>
        <mxCell id="QCrbIoIutA18WwkuLbIm-6" value="" style="edgeStyle=orthogonalEdgeStyle;rounded=0;orthogonalLoop=1;jettySize=auto;html=1;" edge="1" parent="WIyWlLk6GJQsqaUBKTNV-1" source="QCrbIoIutA18WwkuLbIm-3" target="QCrbIoIutA18WwkuLbIm-5">
          <mxGeometry relative="1" as="geometry" />
        </mxCell>
        <mxCell id="QCrbIoIutA18WwkuLbIm-3" value="Definir la variable canidad_letras y asignarle la longitud d epalabra_asignada" style="rounded=1;whiteSpace=wrap;html=1;fillColor=#dae8fc;strokeColor=#6c8ebf;" vertex="1" parent="WIyWlLk6GJQsqaUBKTNV-1">
          <mxGeometry x="240" y="350" width="180" height="115" as="geometry" />
        </mxCell>
        <mxCell id="QCrbIoIutA18WwkuLbIm-8" value="" style="edgeStyle=orthogonalEdgeStyle;rounded=0;orthogonalLoop=1;jettySize=auto;html=1;" edge="1" parent="WIyWlLk6GJQsqaUBKTNV-1" source="QCrbIoIutA18WwkuLbIm-5" target="QCrbIoIutA18WwkuLbIm-7">
          <mxGeometry relative="1" as="geometry" />
        </mxCell>
        <mxCell id="QCrbIoIutA18WwkuLbIm-5" value="Mostrar mensaje: &quot;La palabra ingresada tiene&quot;, cantidad_letras, &quot;letras.&quot;" style="shape=parallelogram;perimeter=parallelogramPerimeter;whiteSpace=wrap;html=1;fixedSize=1;rounded=1;fillColor=#ffe6cc;strokeColor=#d79b00;" vertex="1" parent="WIyWlLk6GJQsqaUBKTNV-1">
          <mxGeometry x="230" y="510" width="220" height="120" as="geometry" />
        </mxCell>
        <mxCell id="QCrbIoIutA18WwkuLbIm-7" value="Fin" style="ellipse;whiteSpace=wrap;html=1;rounded=1;" vertex="1" parent="WIyWlLk6GJQsqaUBKTNV-1">
          <mxGeometry x="260" y="690" width="160" height="130" as="geometry" />
        </mxCell>
      </root>
    </mxGraphModel>
  </diagram>
</mxfile>
